<?xml version="1.0" standalone="no"?>
<!DOCTYPE svg PUBLIC "-//W3C//DTD SVG 20010904//EN"
 "http://www.w3.org/TR/2001/REC-SVG-20010904/DTD/svg10.dtd">
<svg version="1.0" xmlns="http://www.w3.org/2000/svg"
 width="2000.000000pt" height="2000.000000pt" viewBox="0 0 2000.000000 2000.000000"
 preserveAspectRatio="xMidYMid meet">

<g transform="translate(0.000000,2000.000000) scale(0.100000,-0.100000)"
fill="#000000" stroke="none">
<path d="M8173 14783 c-89 -192 -324 -699 -523 -1128 -200 -429 -375 -808
-391 -842 l-28 -61 30 -134 c16 -73 82 -365 145 -648 64 -283 169 -756 235
-1050 66 -294 125 -557 130 -585 l11 -50 126 3 c70 2 128 5 130 7 3 3 -109
509 -393 1775 -75 333 -138 616 -141 630 -4 18 38 117 151 360 86 184 310 667
498 1072 l342 738 1505 0 1505 0 498 -1073 498 -1073 -135 -605 c-74 -332
-151 -676 -171 -764 -20 -88 -96 -430 -170 -760 -74 -330 -184 -822 -244
-1094 -61 -272 -112 -496 -114 -498 -2 -1 -41 12 -88 31 -46 19 -144 53 -217
77 l-133 42 3 411 3 411 32 66 c39 78 111 150 186 184 55 25 185 55 238 55 30
0 31 -2 25 -30 -21 -106 -129 -261 -219 -313 -55 -32 -139 -57 -194 -57 l-43
0 0 -55 0 -55 53 0 c154 0 319 95 413 237 46 69 89 177 109 273 24 115 27 110
-59 110 -276 0 -504 -100 -600 -265 -27 -46 -52 -127 -61 -201 l-7 -52 -56 34
c-31 19 -72 39 -92 45 -49 15 -196 23 -276 14 l-67 -7 7 -51 c8 -69 57 -166
112 -221 68 -68 140 -98 252 -104 l92 -5 0 57 0 56 -56 0 c-114 0 -207 47
-252 128 l-23 42 59 0 c117 0 230 -55 282 -137 l30 -47 0 -249 c0 -232 -1
-248 -17 -243 -10 3 -68 17 -128 30 -499 110 -1135 129 -1675 50 -195 -28
-521 -103 -649 -149 -24 -8 -46 -14 -48 -12 -2 3 -27 121 -55 263 l-52 260 23
48 c13 26 40 64 60 83 43 42 144 93 202 100 40 6 41 5 34 -18 -33 -106 -105
-170 -216 -193 -62 -13 -64 -14 -61 -42 7 -74 9 -77 60 -71 200 24 342 191
342 402 l0 45 -63 0 c-131 0 -281 -56 -367 -136 l-48 -45 -7 38 c-12 68 -66
165 -122 221 -61 61 -165 114 -257 131 -86 16 -248 14 -349 -5 -88 -16 -89
-17 -82 -43 3 -14 29 -73 56 -130 43 -87 63 -116 132 -186 89 -89 164 -132
267 -155 55 -12 222 -11 235 1 3 4 2 28 -2 53 l-8 47 -110 3 c-102 1 -115 4
-178 34 -78 39 -159 115 -212 201 -19 32 -35 63 -35 69 0 16 147 26 222 14
152 -23 268 -113 321 -249 15 -38 157 -730 157 -765 0 -10 -27 -26 -77 -46
-42 -17 -79 -30 -80 -28 -2 2 -31 128 -66 282 l-62 278 -75 12 c-41 7 -95 19
-120 29 -82 30 -82 30 -75 4 32 -140 155 -702 155 -711 0 -7 -30 -29 -67 -48
-88 -46 -299 -186 -386 -256 -37 -31 -70 -54 -71 -52 -2 1 -118 201 -258 443
-358 618 -362 624 -425 733 -138 238 -153 266 -146 273 5 4 134 80 288 169
154 89 310 180 347 201 l67 39 -101 175 -100 174 -27 -13 c-14 -8 -174 -100
-355 -206 -181 -105 -332 -187 -336 -183 -4 4 -85 143 -180 308 -95 165 -178
306 -185 313 -10 11 -43 -4 -181 -84 -93 -54 -171 -99 -173 -100 -2 -2 81
-148 184 -324 103 -177 183 -325 178 -329 -4 -5 -100 -61 -213 -126 -234 -135
-435 -251 -467 -271 -21 -13 -20 -16 79 -186 55 -95 101 -174 102 -175 0 0 69
38 151 86 83 48 242 140 354 205 112 65 207 114 211 109 5 -4 40 -62 78 -128
212 -370 806 -1392 814 -1402 7 -8 -8 -41 -49 -105 -32 -51 -71 -123 -88 -160
l-30 -67 -105 -1 c-535 -1 -1917 -46 -2333 -75 -348 -25 -453 -49 -324 -74
200 -40 946 -74 2187 -101 1852 -40 5404 -37 7160 5 1130 27 1780 59 1968 96
218 43 -256 85 -1343 119 -399 12 -1170 30 -1315 30 l-105 0 -34 76 c-27 60
-122 213 -185 299 -9 12 17 57 552 980 96 165 224 387 285 492 105 182 112
192 132 180 138 -88 688 -398 694 -391 11 12 201 338 198 340 -1 1 -114 67
-252 146 -137 80 -296 171 -352 204 -74 42 -101 63 -97 74 3 8 86 154 185 324
99 170 178 310 176 312 -11 12 -333 194 -342 194 -5 0 -44 -60 -86 -133 -42
-73 -124 -216 -184 -319 l-109 -188 -35 21 c-271 161 -674 389 -679 384 -4 -4
-50 -82 -104 -173 l-96 -167 26 -16 c51 -31 268 -157 474 -275 150 -86 206
-123 202 -134 -3 -8 -138 -244 -301 -525 -163 -280 -363 -626 -445 -767 l-150
-258 -57 44 c-77 60 -253 173 -334 216 -37 19 -67 40 -67 47 0 6 34 164 76
350 139 624 384 1721 566 2533 99 443 188 843 198 889 l19 83 -94 202 c-51
110 -226 489 -390 841 -163 352 -369 796 -458 988 l-161 347 -1666 0 -1667 0
-160 -347z m2307 -5747 c383 -45 714 -124 1015 -243 494 -195 886 -495 1063
-813 l31 -55 -2589 0 -2589 0 31 55 c177 318 571 619 1063 813 359 141 748
224 1220 261 116 9 627 -3 755 -18z"/>
<path d="M8732 8740 c-184 -39 -333 -196 -288 -304 40 -95 185 -110 335 -35
174 87 239 265 117 323 -44 21 -109 27 -164 16z"/>
<path d="M11285 8723 c-32 -8 -45 -23 -45 -52 0 -57 70 -111 146 -114 37 -2
49 2 65 22 24 29 24 31 -4 71 -35 53 -109 86 -162 73z"/>
<path d="M8128 8495 c-144 -53 -188 -204 -67 -229 72 -14 190 37 234 102 32
47 32 86 0 117 -20 21 -34 25 -77 24 -29 0 -70 -7 -90 -14z"/>
<path d="M11868 8351 c-46 -10 -68 -36 -68 -81 0 -106 196 -209 297 -155 39
21 49 51 34 98 -28 84 -171 159 -263 138z"/>
<path d="M8470 8249 c-14 -6 -40 -24 -57 -42 -39 -37 -46 -90 -14 -107 52 -27
158 8 192 64 24 39 24 51 -1 76 -22 22 -77 26 -120 9z"/>
<path d="M9700 13570 l0 -560 -615 0 -615 0 0 -300 0 -300 615 0 615 0 0
-1455 0 -1455 300 0 300 0 2 1453 3 1452 613 3 612 2 0 300 0 300 -615 0 -615
0 0 560 0 560 -300 0 -300 0 0 -560z"/>
<path d="M8420 7483 c-412 -4 -1391 -23 -1680 -33 -617 -21 -920 -44 -920 -70
0 -43 880 -80 2445 -101 787 -11 3491 -7 4015 6 785 20 1033 27 1245 35 504
21 730 47 633 74 -82 22 -592 48 -1263 66 -961 25 -3131 36 -4475 23z"/>
<path d="M5020 6701 c-11 -22 -24 -42 -30 -46 -19 -12 -177 -23 -400 -30 -260
-7 -316 -12 -347 -31 -51 -32 -19 -72 92 -119 l65 -28 0 -634 0 -634 -67 -31
c-110 -49 -140 -90 -89 -123 34 -23 463 -41 554 -23 66 12 67 14 52 69 -10 37
-29 50 -92 65 -36 8 -68 45 -79 91 -12 54 -24 579 -13 585 14 8 184 -11 239
-27 41 -12 65 -29 130 -95 87 -87 119 -101 131 -54 11 44 -4 136 -41 250 -42
127 -79 199 -118 228 -38 28 -58 13 -75 -55 -8 -30 -21 -62 -29 -71 -21 -23
-105 -40 -178 -36 l-60 3 0 265 0 265 120 -1 c93 -1 131 -6 171 -21 69 -27
120 -67 150 -119 30 -51 87 -104 113 -104 22 0 37 16 46 51 12 48 -107 373
-156 425 -34 37 -65 31 -89 -15z"/>
<path d="M9508 6723 c-9 -10 -19 -28 -23 -41 -4 -13 -19 -28 -33 -34 -15 -6
-154 -14 -312 -19 -361 -10 -424 -16 -452 -39 -38 -30 -13 -62 82 -107 l80
-37 0 -637 0 -636 -57 -22 c-77 -30 -125 -67 -121 -94 6 -43 42 -49 372 -58
369 -10 481 -17 519 -32 15 -7 38 -30 50 -51 12 -22 27 -41 33 -43 20 -7 61
37 88 93 30 62 103 309 112 377 15 105 -79 94 -153 -18 -70 -106 -161 -166
-284 -187 -116 -20 -222 31 -269 127 -21 43 -22 60 -23 293 l-2 247 70 3 c162
7 287 -45 336 -140 21 -41 45 -58 82 -58 63 0 61 68 -6 271 -67 202 -108 255
-164 212 -14 -10 -33 -38 -42 -63 -21 -56 -48 -67 -181 -72 l-95 -3 0 265 0
265 74 3 c95 4 190 -11 247 -38 24 -12 86 -64 138 -116 93 -93 108 -102 135
-85 33 21 -12 245 -82 402 -36 81 -85 110 -119 72z"/>
<path d="M15446 6698 c-9 -12 -16 -39 -16 -60 0 -44 -7 -46 -81 -22 -73 24
-255 16 -326 -15 -66 -29 -155 -121 -191 -198 -23 -51 -27 -70 -26 -153 1
-183 55 -247 374 -435 274 -163 355 -251 354 -390 -1 -154 -95 -261 -258 -295
-102 -21 -195 5 -250 70 -31 38 -32 42 -5 66 78 70 57 194 -41 244 -22 11 -51
20 -65 20 -66 0 -155 -65 -176 -129 -18 -54 -13 -143 12 -200 56 -132 249
-229 456 -231 85 0 203 27 282 66 218 107 342 388 271 615 -49 159 -166 272
-450 434 -224 128 -274 178 -263 263 11 88 63 134 158 140 126 8 223 -50 320
-194 67 -99 105 -125 132 -89 20 27 12 90 -32 245 -37 130 -74 222 -102 252
-22 25 -59 23 -77 -4z"/>
<path d="M12300 6661 c-36 -12 -127 -59 -187 -97 -86 -55 -80 -112 14 -136 24
-6 50 -20 58 -31 23 -33 18 -114 -15 -218 -36 -117 -275 -747 -332 -876 -52
-120 -75 -147 -146 -173 -71 -27 -82 -36 -82 -70 0 -44 34 -52 225 -55 200 -4
288 4 312 27 15 15 15 19 0 41 -9 13 -41 39 -72 56 -87 50 -91 82 -26 236 l30
70 240 3 239 2 31 -92 c28 -87 36 -128 33 -171 -1 -12 -21 -27 -56 -42 -56
-25 -76 -47 -76 -85 0 -38 39 -44 300 -44 135 -1 262 3 283 7 35 7 37 10 37
46 0 45 -10 55 -70 71 -93 25 -94 26 -370 783 -198 544 -268 729 -278 739 -12
12 -65 18 -92 9z m68 -696 c59 -151 104 -292 100 -317 -4 -30 -31 -35 -192
-37 l-128 -1 6 26 c16 63 162 442 168 436 3 -4 24 -52 46 -107z"/>
<path d="M7154 6630 c-17 -5 -39 -18 -48 -29 -55 -60 -4 -241 68 -241 37 0 47
-40 57 -235 12 -256 11 -882 -2 -928 -12 -43 -35 -61 -106 -82 -60 -18 -78
-36 -69 -69 4 -18 17 -28 44 -35 49 -14 432 -14 469 0 68 26 50 86 -34 108
-55 15 -90 56 -104 121 -13 60 -14 787 -1 917 l7 72 90 -78 c50 -43 113 -107
141 -142 66 -82 375 -569 407 -641 33 -75 55 -167 63 -266 9 -102 19 -112 116
-112 93 0 99 7 92 123 -14 258 -24 685 -24 997 l0 348 62 21 c70 24 108 54
108 87 0 48 -20 54 -183 55 -246 1 -299 -2 -334 -16 -62 -26 -36 -92 47 -120
80 -27 81 -29 92 -316 5 -137 8 -285 6 -327 l-3 -77 -43 80 c-141 260 -345
499 -576 674 -134 102 -250 139 -342 111z"/>
<path d="M10142 6620 c-61 -9 -82 -23 -82 -55 0 -30 50 -72 96 -81 72 -13 69
13 69 -659 0 -330 -3 -616 -8 -636 -7 -34 -12 -38 -64 -55 -66 -22 -99 -58
-89 -97 10 -41 79 -50 360 -44 133 2 251 8 263 12 30 10 37 39 17 70 -20 31
-54 50 -106 59 -40 7 -53 24 -85 110 -14 36 -16 116 -14 641 2 330 5 602 7
605 3 2 46 -4 97 -14 101 -21 142 -44 232 -131 69 -66 95 -135 95 -248 0 -45
-5 -98 -10 -117 -16 -59 -65 -125 -114 -156 -207 -129 -217 -138 -198 -203 7
-21 73 -130 146 -240 124 -186 176 -283 176 -331 0 -51 1 -51 179 -49 91 1
194 5 229 8 116 12 121 62 11 121 -102 53 -168 111 -366 318 l-186 195 76 28
c214 78 320 228 321 454 0 193 -76 326 -243 425 -104 62 -162 71 -481 75 -151
2 -299 0 -328 -5z"/>
<path d="M5463 6610 c-50 -20 -5 -112 60 -125 57 -12 67 -16 78 -36 16 -31 27
-218 33 -589 8 -426 13 -530 32 -599 51 -181 250 -303 494 -302 246 1 445 136
489 333 6 24 15 259 21 522 10 459 18 582 40 640 8 22 15 26 51 26 35 0 47 6
76 36 39 42 40 72 3 92 -35 18 -453 12 -492 -8 -60 -29 -46 -71 36 -109 78
-35 95 -61 106 -164 13 -112 12 -735 -1 -854 -24 -218 -93 -301 -260 -311 -99
-6 -156 13 -237 78 l-62 51 0 573 0 574 74 35 c43 20 82 46 92 62 16 25 16 27
-2 45 -12 13 -44 23 -89 30 -86 12 -512 12 -542 0z"/>
<path d="M13364 6606 c-27 -12 -43 -38 -44 -68 0 -4 41 -28 90 -53 l90 -45 0
-635 0 -635 -67 -30 c-37 -17 -75 -38 -85 -47 -22 -20 -23 -56 -3 -73 19 -15
190 -29 410 -31 215 -3 409 -14 429 -26 9 -5 24 -25 34 -44 21 -42 56 -49 94
-19 31 24 72 126 128 316 52 178 56 229 18 243 -37 13 -66 -7 -123 -89 -88
-125 -173 -192 -284 -224 -109 -32 -175 -17 -226 50 -56 73 -56 71 -55 642 1
290 3 544 7 565 6 37 10 41 78 72 100 45 132 95 83 129 -19 14 -63 16 -283 16
-196 -1 -268 -4 -291 -14z"/>
</g>
</svg>
