<?xml version="1.0" standalone="no"?>
<!DOCTYPE svg PUBLIC "-//W3C//DTD SVG 20010904//EN"
 "http://www.w3.org/TR/2001/REC-SVG-20010904/DTD/svg10.dtd">
<svg version="1.0" xmlns="http://www.w3.org/2000/svg"
 width="1228.000000pt" height="1078.000000pt" viewBox="0 0 1228.000000 1078.000000"
 preserveAspectRatio="xMidYMid meet">
<metadata>
Created by potrace 1.16, written by Peter Selinger 2001-2019
</metadata>
<g transform="translate(0.000000,1078.000000) scale(0.100000,-0.100000)"
fill="#000000" stroke="none">
<path d="M4512 10438 c-33 -73 -108 -234 -165 -358 -57 -124 -263 -567 -457
-985 -194 -418 -368 -792 -386 -832 l-33 -72 30 -133 c17 -73 86 -385 155
-693 69 -308 170 -760 225 -1005 55 -245 109 -488 121 -540 l20 -95 127 3 c69
2 127 5 129 7 2 2 -33 164 -77 362 -44 197 -136 610 -205 918 -69 308 -153
682 -186 830 -33 149 -63 281 -66 295 -4 18 37 116 148 355 85 182 309 664
498 1072 l345 743 1505 0 1505 0 498 -1073 498 -1074 -86 -384 c-47 -211 -124
-555 -171 -764 -47 -209 -145 -650 -219 -980 -74 -330 -184 -822 -244 -1094
-61 -272 -112 -496 -114 -497 -2 -2 -41 11 -88 30 -46 19 -144 53 -217 77
l-133 42 3 411 3 411 33 67 c38 78 112 150 188 184 55 24 183 54 234 54 30 0
31 -1 25 -32 -19 -87 -92 -211 -159 -268 -70 -60 -172 -100 -252 -100 l-44 0
0 -55 0 -55 53 0 c28 0 76 7 106 15 212 56 361 233 416 495 24 115 27 110 -59
110 -276 0 -504 -100 -600 -265 -27 -46 -52 -127 -61 -201 l-7 -52 -56 34
c-31 19 -72 39 -92 45 -49 15 -196 23 -276 14 l-67 -7 7 -51 c8 -70 57 -167
114 -223 67 -68 136 -95 250 -102 l92 -5 0 57 0 56 -56 0 c-114 0 -207 47
-252 128 l-23 42 59 0 c117 0 230 -55 282 -137 l30 -47 0 -249 c0 -201 -3
-248 -13 -244 -23 9 -249 56 -342 71 -476 78 -1055 78 -1530 0 -179 -29 -418
-85 -554 -130 -41 -13 -76 -22 -78 -20 -2 2 -27 120 -55 262 l-52 260 23 48
c13 26 40 64 60 83 43 42 144 93 202 100 40 6 41 5 34 -18 -16 -50 -45 -97
-81 -128 -42 -38 -69 -50 -144 -66 -52 -11 -55 -13 -52 -41 7 -74 9 -77 60
-71 200 24 342 191 342 402 l0 45 -63 0 c-131 0 -281 -56 -367 -136 l-48 -45
-7 38 c-3 21 -20 67 -37 103 -58 122 -182 215 -327 246 -89 18 -256 18 -364
-2 -88 -16 -89 -17 -82 -43 3 -14 29 -73 56 -130 43 -87 63 -116 132 -186 89
-89 164 -132 267 -155 55 -12 222 -11 235 1 3 4 2 28 -2 55 l-8 48 -85 -2
c-141 -5 -250 40 -343 142 -40 43 -107 147 -107 164 0 16 147 26 222 14 164
-25 277 -119 327 -272 20 -59 151 -706 151 -742 0 -10 -27 -26 -77 -46 -42
-17 -79 -30 -80 -28 -2 2 -31 129 -66 283 l-62 281 -61 6 c-34 4 -88 16 -120
27 -101 35 -96 34 -89 8 34 -147 155 -702 155 -711 0 -7 -38 -33 -83 -58 -102
-56 -280 -175 -370 -247 -38 -30 -70 -53 -71 -51 -2 1 -144 246 -316 543 -172
297 -338 583 -368 635 -137 235 -152 264 -145 271 5 4 123 74 263 155 140 81
296 171 347 201 l92 53 -100 173 c-56 96 -105 171 -112 169 -11 -3 -350 -197
-590 -339 -59 -34 -109 -63 -111 -63 -2 0 -15 19 -29 43 -228 397 -332 574
-343 586 -10 11 -41 -3 -181 -84 -92 -54 -170 -100 -172 -101 -2 -2 81 -148
184 -324 103 -177 183 -325 178 -329 -4 -4 -66 -41 -138 -83 -436 -251 -555
-322 -555 -331 0 -5 44 -86 97 -178 l97 -168 31 18 c16 10 73 43 125 73 52 30
198 115 323 187 126 73 233 129 237 125 5 -5 40 -63 78 -129 38 -66 224 -388
413 -715 190 -327 359 -620 377 -650 l31 -55 -54 -85 c-30 -46 -69 -117 -87
-157 l-33 -73 -105 0 c-501 0 -1914 -46 -2333 -75 -348 -25 -453 -49 -325 -74
201 -40 947 -74 2188 -101 1959 -42 5450 -37 7365 10 953 24 1587 56 1763 91
218 43 -261 86 -1338 119 -409 12 -1177 30 -1320 30 l-105 0 -34 75 c-26 59
-136 237 -185 300 -6 8 31 81 109 216 65 112 166 287 225 389 59 102 165 284
235 405 71 121 185 318 254 437 119 206 126 217 146 205 139 -89 688 -398 694
-391 11 12 201 338 198 340 -1 1 -114 67 -252 146 -137 80 -296 171 -352 204
-73 42 -101 63 -97 74 5 13 66 119 281 489 46 79 82 145 80 147 -12 12 -333
194 -342 194 -5 -1 -80 -122 -165 -270 -85 -148 -168 -292 -185 -319 l-30 -49
-125 72 c-69 40 -228 132 -353 205 -126 73 -232 130 -235 126 -4 -4 -51 -82
-104 -173 l-97 -167 27 -16 c54 -32 202 -119 437 -254 132 -76 242 -140 244
-142 2 -1 -32 -64 -76 -140 -65 -114 -805 -1391 -820 -1416 -2 -4 -30 13 -62
37 -77 60 -253 173 -334 216 -37 19 -67 40 -67 47 0 11 73 338 505 2273 103
459 224 1003 270 1209 l84 375 -131 280 c-72 155 -214 461 -316 681 -101 220
-249 537 -327 705 -78 168 -184 396 -235 508 l-94 202 -1666 0 -1667 0 -61
-132z m2203 -5962 c378 -42 717 -123 1020 -243 494 -195 886 -494 1063 -813
l31 -55 -2589 0 -2589 0 31 55 c171 307 551 604 1017 795 368 151 764 238
1266 279 112 9 616 -3 750 -18z"/>
<path d="M4953 4175 c-184 -51 -313 -195 -269 -300 40 -94 185 -109 335 -34
175 87 239 265 116 323 -50 24 -121 28 -182 11z"/>
<path d="M7525 4163 c-32 -8 -45 -23 -45 -53 0 -58 68 -110 147 -113 36 -2 48
3 64 22 24 29 24 31 -4 71 -35 53 -109 86 -162 73z"/>
<path d="M4368 3935 c-144 -53 -188 -204 -67 -229 72 -14 190 37 234 102 32
47 32 86 0 117 -20 21 -34 25 -77 24 -29 0 -70 -7 -90 -14z"/>
<path d="M8108 3791 c-46 -10 -68 -36 -68 -81 0 -106 196 -209 297 -155 39 21
49 51 34 98 -28 84 -171 159 -263 138z"/>
<path d="M4710 3689 c-14 -6 -40 -24 -57 -42 -39 -37 -46 -90 -14 -107 52 -27
158 8 192 64 24 39 24 51 -1 76 -22 22 -77 26 -120 9z"/>
<path d="M5940 9010 l0 -560 -615 0 -615 0 0 -300 0 -300 615 0 615 0 0 -1455
0 -1455 300 0 300 0 0 1455 0 1455 615 0 615 0 0 300 0 300 -615 0 -615 0 0
560 0 560 -300 0 -300 0 0 -560z"/>
<path d="M4660 2923 c-412 -4 -1391 -23 -1680 -33 -617 -21 -920 -44 -920 -70
0 -43 875 -80 2435 -101 779 -11 3502 -7 4025 6 794 20 1033 27 1245 35 504
21 730 47 633 74 -83 22 -590 49 -1263 66 -968 25 -3133 36 -4475 23z"/>
<path d="M1258 2138 c-16 -29 -32 -44 -53 -50 -16 -5 -145 -13 -285 -18 -360
-13 -409 -17 -436 -35 -51 -33 -22 -73 91 -120 l65 -28 0 -634 0 -634 -68 -31
c-109 -49 -139 -90 -88 -123 34 -23 463 -41 554 -23 66 12 67 14 52 69 -9 33
-41 59 -71 59 -26 0 -77 33 -89 58 -7 15 -15 74 -19 132 -11 153 -13 487 -4
493 14 7 185 -13 238 -28 41 -12 65 -29 130 -95 87 -87 119 -101 131 -54 11
44 -4 136 -41 250 -42 127 -79 199 -118 228 -38 28 -58 13 -75 -55 -8 -30 -21
-62 -29 -71 -21 -23 -105 -40 -178 -36 l-60 3 0 265 0 265 74 3 c164 7 288
-36 348 -118 82 -115 125 -147 157 -120 29 23 28 65 -5 166 -42 131 -102 271
-130 300 -35 37 -64 31 -91 -18z"/>
<path d="M5748 2163 c-9 -10 -19 -28 -23 -41 -4 -13 -19 -28 -33 -34 -15 -6
-155 -14 -312 -19 -363 -11 -424 -16 -452 -39 -38 -30 -13 -62 82 -107 l80
-37 0 -637 0 -636 -57 -22 c-77 -30 -125 -67 -121 -94 6 -44 41 -49 397 -59
313 -8 489 -19 512 -33 5 -4 18 -24 30 -46 28 -56 46 -60 83 -17 40 46 75 137
122 315 37 143 39 185 9 197 -30 11 -84 -22 -117 -70 -85 -124 -173 -185 -299
-206 -116 -20 -222 31 -269 127 -21 43 -22 60 -23 293 l-2 247 70 3 c162 7
287 -45 336 -140 21 -41 45 -58 82 -58 63 0 61 68 -6 271 -67 202 -108 255
-164 212 -14 -10 -33 -38 -42 -63 -21 -56 -48 -67 -181 -72 l-95 -3 0 265 0
265 83 3 c172 6 249 -24 364 -143 44 -45 90 -88 103 -95 82 -44 71 120 -26
371 -41 106 -92 146 -131 102z"/>
<path d="M11686 2138 c-9 -12 -16 -39 -16 -60 0 -44 -7 -46 -81 -22 -73 24
-255 16 -326 -15 -66 -29 -155 -121 -191 -198 -23 -51 -27 -70 -26 -153 1
-188 47 -238 428 -469 278 -169 353 -297 278 -472 -41 -96 -119 -155 -236
-179 -102 -21 -195 5 -250 70 -31 38 -32 42 -5 66 78 70 57 194 -41 244 -22
11 -51 20 -65 20 -66 0 -155 -65 -176 -129 -18 -54 -13 -143 12 -200 56 -132
249 -229 456 -231 85 0 203 27 282 66 184 91 303 304 289 517 -14 200 -144
349 -459 527 -229 129 -283 182 -272 268 11 88 63 134 159 140 124 8 226 -53
317 -192 31 -47 65 -90 76 -96 57 -30 81 10 62 103 -33 163 -100 357 -138 399
-22 25 -59 23 -77 -4z"/>
<path d="M8540 2101 c-36 -12 -127 -59 -187 -97 -86 -55 -80 -112 14 -136 24
-6 50 -20 58 -31 23 -33 18 -114 -15 -218 -36 -117 -275 -747 -332 -876 -52
-120 -75 -147 -146 -173 -71 -27 -82 -36 -82 -70 0 -43 34 -52 220 -55 199 -4
293 4 316 27 16 15 16 19 1 41 -9 13 -41 39 -72 56 -87 50 -91 82 -26 236 l30
70 240 3 239 2 31 -92 c28 -87 36 -128 33 -171 -1 -12 -21 -27 -56 -42 -56
-25 -76 -47 -76 -85 0 -38 39 -44 300 -44 135 -1 262 3 283 7 35 7 37 10 37
46 0 45 -10 55 -66 70 -58 15 -87 42 -116 103 -30 64 -120 302 -262 693 -146
402 -265 718 -274 727 -12 12 -65 18 -92 9z m60 -676 c52 -129 110 -307 110
-336 0 -24 -4 -27 -46 -33 -70 -9 -274 -7 -274 3 0 5 23 71 51 147 28 77 65
178 82 226 18 48 35 84 39 80 3 -4 21 -43 38 -87z"/>
<path d="M3394 2070 c-44 -14 -66 -43 -69 -92 -5 -86 42 -178 90 -178 36 0 46
-43 56 -235 12 -256 11 -882 -2 -928 -12 -43 -35 -61 -106 -82 -60 -18 -78
-36 -69 -69 9 -38 57 -46 282 -46 221 0 260 7 271 48 7 31 -20 57 -76 72 -53
14 -89 56 -103 120 -12 60 -13 771 0 912 l7 77 90 -78 c50 -43 113 -107 141
-142 66 -82 378 -573 408 -642 32 -72 54 -168 62 -265 9 -102 19 -112 116
-112 93 0 99 7 92 123 -14 258 -24 685 -24 997 l0 348 62 21 c70 24 108 54
108 87 0 48 -20 54 -183 55 -246 1 -299 -2 -334 -16 -63 -27 -30 -102 56 -125
70 -19 72 -28 83 -311 5 -137 8 -285 6 -327 l-3 -77 -43 80 c-167 309 -464
629 -695 751 -75 39 -162 53 -223 34z"/>
<path d="M6382 2060 c-29 -4 -59 -13 -67 -20 -39 -33 0 -92 76 -114 77 -23 74
8 74 -682 0 -688 5 -644 -79 -672 -59 -20 -92 -58 -82 -95 10 -41 79 -50 360
-44 133 2 251 8 263 12 30 10 37 39 17 70 -20 31 -54 50 -106 59 -40 7 -53 23
-85 110 -14 36 -16 115 -14 641 2 330 5 602 7 605 3 2 46 -4 96 -14 100 -21
142 -44 233 -131 76 -72 98 -138 93 -270 -6 -155 -44 -212 -207 -304 -75 -42
-121 -86 -121 -116 0 -33 46 -114 174 -304 106 -159 156 -254 156 -301 0 -51
1 -51 179 -49 275 3 339 18 314 72 -6 13 -39 38 -74 57 -90 47 -161 104 -258
206 -47 49 -132 138 -189 198 l-105 109 76 28 c214 78 320 227 320 453 1 194
-75 327 -242 426 -104 62 -162 71 -481 75 -151 2 -299 0 -328 -5z"/>
<path d="M1703 2050 c-50 -20 -5 -112 60 -125 57 -12 67 -16 78 -36 16 -32 27
-219 33 -589 8 -428 13 -530 32 -599 51 -181 251 -303 494 -302 246 1 445 136
489 333 6 24 15 259 21 523 10 461 18 582 40 639 8 22 15 26 51 26 35 0 47 6
76 36 39 42 40 72 3 92 -35 18 -453 12 -492 -8 -60 -29 -46 -71 36 -109 80
-36 95 -60 107 -174 14 -122 5 -852 -11 -926 -33 -153 -107 -220 -251 -229
-99 -6 -156 13 -237 78 l-62 51 0 573 0 574 74 35 c43 20 82 46 92 62 16 25
16 27 -2 45 -12 13 -44 23 -89 30 -86 12 -512 12 -542 0z"/>
<path d="M9604 2046 c-27 -12 -43 -38 -44 -68 0 -4 41 -28 90 -53 l90 -45 0
-635 0 -635 -67 -30 c-37 -17 -75 -38 -85 -47 -22 -20 -23 -56 -3 -73 19 -16
187 -29 405 -31 219 -3 413 -14 434 -26 9 -5 24 -25 34 -44 33 -66 98 -44 138
47 37 84 125 385 126 430 1 51 -7 64 -37 64 -41 0 -54 -10 -108 -89 -88 -124
-174 -192 -286 -225 -109 -32 -175 -17 -226 50 -56 73 -56 72 -55 638 1 286 4
540 7 564 6 42 7 43 78 76 100 46 131 96 83 130 -19 14 -63 16 -283 16 -196
-1 -268 -4 -291 -14z"/>
</g>
</svg>
